<svg version="1.1" viewBox="0.0 0.0 800.0 800.0" fill="none" stroke="none" stroke-linecap="square" stroke-miterlimit="10" xmlns:xlink="http://www.w3.org/1999/xlink" xmlns="http://www.w3.org/2000/svg"><clipPath id="p.0"><path d="m0 0l800.0 0l0 800.0l-800.0 0l0 -800.0z" clip-rule="nonzero"/></clipPath><g clip-path="url(#p.0)"><path fill="#000000" fill-opacity="0.0" d="m0 0l800.0 0l0 800.0l-800.0 0z" fill-rule="evenodd"/><path fill="#123f46" d="m442.10086 102.57719l0 0c13.384796 -32.17723 50.32083 -47.413235 82.49893 -34.03057l233.04755 96.92291l0 0c15.452515 6.42659 27.71875 18.728256 34.10028 34.198776c6.381531 15.470535 6.355652 32.84265 -0.07196045 48.29471l-186.9624 449.4602c-13.384827 32.177246 -50.32086 47.413208 -82.49896 34.03058l-233.04755 -96.92291c-32.1781 -13.38269 -47.413116 -50.316284 -34.02832 -82.49347z" fill-rule="evenodd"/><path fill="#337f8a" d="m186.00337 118.59389l0 0c0 -34.854065 28.254807 -63.10887 63.108887 -63.10887l252.4279 0l0 0c16.737549 0 32.78949 6.6489525 44.624756 18.484161c11.835205 11.835213 18.48413 27.8872 18.48413 44.62471l0 486.75867c0 34.854065 -28.254822 63.108887 -63.108887 63.108887l-252.4279 0c-34.85408 0 -63.108887 -28.254822 -63.108887 -63.108887z" fill-rule="evenodd"/><path fill="#50b2c0" d="m8.747203 224.73126l0 0c-11.098881 -33.036987 6.6848917 -68.8179 39.72117 -79.9189l239.26271 -80.39815l0 0c15.864563 -5.330887 33.196655 -4.141121 48.18341 3.3075638c14.986725 7.4486847 26.400482 20.546135 31.730347 36.411057l155.02002 461.43332c11.098877 33.036987 -6.6849365 68.81793 -39.72119 79.918945l-239.2627 80.39813c-33.03627 11.101013 -68.814896 -6.6816406 -79.91377 -39.718628z" fill-rule="evenodd"/></g></svg>